<svg width="48" height="48" viewBox="0 0 48 48" fill="none" xmlns="http://www.w3.org/2000/svg">
<rect width="48" height="48" fill="black" style="fill:black;fill-opacity:1;"/>
<path fill-rule="evenodd" clip-rule="evenodd" d="M24.576 29.2522C23.4887 27.369 24.134 24.9608 26.0173 23.8735C27.9005 22.7862 30.3087 23.4315 31.396 25.3147L35.6865 32.7462C36.7739 34.6295 36.1286 37.0376 34.2453 38.1249C32.362 39.2122 29.9539 38.567 28.8666 36.6837L24.576 29.2522ZM34.1868 33.5649C34.7916 34.6124 34.4327 35.9517 33.3852 36.5565C32.3378 37.1612 30.9984 36.8024 30.3936 35.7549C29.7889 34.7074 30.1478 33.3681 31.1952 32.7633C32.2427 32.1585 33.5821 32.5174 34.1868 33.5649ZM27.9375 29.3519C29.1456 29.3519 30.125 28.3725 30.125 27.1644C30.125 25.9562 29.1456 24.9769 27.9375 24.9769C26.7294 24.9769 25.75 25.9562 25.75 27.1644C25.75 28.3725 26.7294 29.3519 27.9375 29.3519Z" fill="#FFC107" style="fill:#FFC107;fill:color(display-p3 1.0000 0.7569 0.0275);fill-opacity:1;"/>
<path fill-rule="evenodd" clip-rule="evenodd" d="M13.9375 10.9769C11.7629 10.9769 10 12.7398 10 14.9144V34.1644C10 36.339 11.7629 38.1019 13.9375 38.1019C16.1121 38.1019 17.875 36.339 17.875 34.1644V14.9144C17.875 12.7398 16.1121 10.9769 13.9375 10.9769ZM13.9375 17.1019C15.1456 17.1019 16.125 16.1225 16.125 14.9144C16.125 13.7063 15.1456 12.7269 13.9375 12.7269C12.7294 12.7269 11.75 13.7063 11.75 14.9144C11.75 16.1225 12.7294 17.1019 13.9375 17.1019ZM16.125 27.1644C16.125 28.3725 15.1456 29.3519 13.9375 29.3519C12.7294 29.3519 11.75 28.3725 11.75 27.1644C11.75 25.9563 12.7294 24.9769 13.9375 24.9769C15.1456 24.9769 16.125 25.9563 16.125 27.1644ZM13.9375 36.3519C15.1456 36.3519 16.125 35.3725 16.125 34.1644C16.125 32.9563 15.1456 31.9769 13.9375 31.9769C12.7294 31.9769 11.75 32.9563 11.75 34.1644C11.75 35.3725 12.7294 36.3519 13.9375 36.3519Z" fill="#00DA09" style="fill:#00DA09;fill:color(display-p3 0.0000 0.8549 0.0353);fill-opacity:1;"/>
<path fill-rule="evenodd" clip-rule="evenodd" d="M27.9375 23.2269C30.1121 23.2269 31.875 24.9898 31.875 27.1644C31.875 29.339 30.1121 31.1019 27.9375 31.1019L13.9375 31.1019C11.7629 31.1019 10 29.339 10 27.1644C10 24.9898 11.7629 23.2269 13.9375 23.2269H27.9375ZM16.125 27.1644C16.125 28.3725 15.1456 29.3519 13.9375 29.3519C12.7294 29.3519 11.75 28.3725 11.75 27.1644C11.75 25.9563 12.7294 24.9769 13.9375 24.9769C15.1456 24.9769 16.125 25.9563 16.125 27.1644ZM27.9375 29.3519C29.1456 29.3519 30.125 28.3725 30.125 27.1644C30.125 25.9563 29.1456 24.9769 27.9375 24.9769C26.7294 24.9769 25.75 25.9563 25.75 27.1644C25.75 28.3725 26.7294 29.3519 27.9375 29.3519Z" fill="white" style="fill:white;fill-opacity:1;"/>
<path fill-rule="evenodd" clip-rule="evenodd" d="M24 14.8306C24 12.7022 25.7095 10.9769 27.8182 10.9769C33.3184 10.9769 38 15.3599 38 21.0394C38 26.7188 33.3184 31.1019 27.8182 31.1019C25.7095 31.1019 24 29.3765 24 27.2481C24 25.1198 25.8288 23.2269 27.9375 23.2269C29.4664 23.2269 30.3636 22.2179 30.3636 21.0394C30.3636 19.8608 29.4664 18.8519 27.9375 18.8519C25.8288 18.8519 24 16.959 24 14.8306ZM30.125 14.9144C30.125 16.1225 29.1456 17.1019 27.9375 17.1019C26.7294 17.1019 25.75 16.1225 25.75 14.9144C25.75 13.7063 26.7294 12.7269 27.9375 12.7269C29.1456 12.7269 30.125 13.7063 30.125 14.9144ZM27.9375 29.3519C29.1456 29.3519 30.125 28.3725 30.125 27.1644C30.125 25.9563 29.1456 24.9769 27.9375 24.9769C26.7294 24.9769 25.75 25.9563 25.75 27.1644C25.75 28.3725 26.7294 29.3519 27.9375 29.3519Z" fill="#FF6813" style="fill:#FF6813;fill:color(display-p3 1.0000 0.4075 0.0742);fill-opacity:1;"/>
<path fill-rule="evenodd" clip-rule="evenodd" d="M27.9375 10.9769C30.1121 10.9769 31.875 12.7398 31.875 14.9144C31.875 17.089 30.1121 18.8519 27.9375 18.8519L13.9375 18.8519C11.7629 18.8519 10 17.089 10 14.9144C10 12.7398 11.7629 10.9769 13.9375 10.9769H27.9375ZM30.125 14.9144C30.125 16.1225 29.1456 17.1019 27.9375 17.1019C26.7294 17.1019 25.75 16.1225 25.75 14.9144C25.75 13.7063 26.7294 12.7269 27.9375 12.7269C29.1456 12.7269 30.125 13.7063 30.125 14.9144ZM13.9375 17.1019C15.1456 17.1019 16.125 16.1225 16.125 14.9144C16.125 13.7063 15.1456 12.7269 13.9375 12.7269C12.7294 12.7269 11.75 13.7063 11.75 14.9144C11.75 16.1225 12.7294 17.1019 13.9375 17.1019Z" fill="#16ABFF" style="fill:#16ABFF;fill:color(display-p3 0.0875 0.6715 1.0000);fill-opacity:1;"/>
</svg>
