<svg width="30" height="30" viewBox="0 0 30 30" fill="none" xmlns="http://www.w3.org/2000/svg">
<path fill-rule="evenodd" clip-rule="evenodd" d="M15.576 19.2754C14.4887 17.3921 15.134 14.9839 17.0173 13.8966C18.9005 12.8093 21.3087 13.4546 22.396 15.3379L26.6865 22.7693C27.7739 24.6526 27.1286 27.0607 25.2453 28.1481C23.362 29.2354 20.9539 28.5901 19.8666 26.7068L15.576 19.2754ZM25.1868 23.588C25.7916 24.6355 25.4327 25.9749 24.3852 26.5796C23.3378 27.1844 21.9984 26.8255 21.3936 25.778C20.7889 24.7306 21.1478 23.3912 22.1952 22.7864C23.2427 22.1817 24.5821 22.5406 25.1868 23.588ZM18.9375 19.375C20.1456 19.375 21.125 18.3956 21.125 17.1875C21.125 15.9794 20.1456 15 18.9375 15C17.7294 15 16.75 15.9794 16.75 17.1875C16.75 18.3956 17.7294 19.375 18.9375 19.375Z" fill="white" style="fill:white;fill-opacity:1;"/>
<path fill-rule="evenodd" clip-rule="evenodd" d="M4.9375 1C2.76288 1 1 2.76288 1 4.9375V24.1875C1 26.3621 2.76288 28.125 4.9375 28.125C7.11212 28.125 8.875 26.3621 8.875 24.1875V4.9375C8.875 2.76288 7.11212 1 4.9375 1ZM4.9375 7.12501C6.14562 7.12501 7.125 6.14563 7.125 4.93751C7.125 3.72938 6.14562 2.75001 4.9375 2.75001C3.72938 2.75001 2.75 3.72938 2.75 4.93751C2.75 6.14563 3.72938 7.12501 4.9375 7.12501ZM7.125 17.1875C7.125 18.3956 6.14562 19.375 4.9375 19.375C3.72938 19.375 2.75 18.3956 2.75 17.1875C2.75 15.9794 3.72938 15 4.9375 15C6.14562 15 7.125 15.9794 7.125 17.1875ZM4.9375 26.375C6.14562 26.375 7.125 25.3956 7.125 24.1875C7.125 22.9794 6.14562 22 4.9375 22C3.72938 22 2.75 22.9794 2.75 24.1875C2.75 25.3956 3.72938 26.375 4.9375 26.375Z" fill="white" style="fill:white;fill-opacity:1;"/>
<path fill-rule="evenodd" clip-rule="evenodd" d="M18.9375 13.25C21.1121 13.25 22.875 15.0129 22.875 17.1875C22.875 19.3621 21.1121 21.125 18.9375 21.125L4.9375 21.125C2.76288 21.125 1 19.3621 1 17.1875C1 15.0129 2.76288 13.25 4.9375 13.25H18.9375ZM7.125 17.1875C7.125 18.3956 6.14562 19.375 4.9375 19.375C3.72938 19.375 2.75 18.3956 2.75 17.1875C2.75 15.9794 3.72938 15 4.9375 15C6.14562 15 7.125 15.9794 7.125 17.1875ZM18.9375 19.375C20.1456 19.375 21.125 18.3956 21.125 17.1875C21.125 15.9794 20.1456 15 18.9375 15C17.7294 15 16.75 15.9794 16.75 17.1875C16.75 18.3956 17.7294 19.375 18.9375 19.375Z" fill="white" style="fill:white;fill-opacity:1;"/>
<path fill-rule="evenodd" clip-rule="evenodd" d="M15 4.85372C15 2.72537 16.7095 1 18.8182 1C24.3184 1 29 5.38303 29 11.0625C29 16.742 24.3184 21.125 18.8182 21.125C16.7095 21.125 15 19.3996 15 17.2713C15 15.1429 16.8288 13.25 18.9375 13.25C20.4664 13.25 21.3636 12.2411 21.3636 11.0625C21.3636 9.88394 20.4664 8.875 18.9375 8.875C16.8288 8.875 15 6.98208 15 4.85372ZM21.125 4.93751C21.125 6.14563 20.1456 7.12501 18.9375 7.12501C17.7294 7.12501 16.75 6.14563 16.75 4.93751C16.75 3.72938 17.7294 2.75001 18.9375 2.75001C20.1456 2.75001 21.125 3.72938 21.125 4.93751ZM18.9375 19.375C20.1456 19.375 21.125 18.3956 21.125 17.1875C21.125 15.9794 20.1456 15 18.9375 15C17.7294 15 16.75 15.9794 16.75 17.1875C16.75 18.3956 17.7294 19.375 18.9375 19.375Z" fill="white" style="fill:white;fill-opacity:1;"/>
<path fill-rule="evenodd" clip-rule="evenodd" d="M18.9375 1C21.1121 1 22.875 2.76288 22.875 4.9375C22.875 7.11212 21.1121 8.875 18.9375 8.875L4.9375 8.875C2.76288 8.875 1 7.11212 1 4.9375C1 2.76288 2.76288 1 4.9375 1H18.9375ZM21.125 4.9375C21.125 6.14562 20.1456 7.125 18.9375 7.125C17.7294 7.125 16.75 6.14562 16.75 4.9375C16.75 3.72938 17.7294 2.75 18.9375 2.75C20.1456 2.75 21.125 3.72938 21.125 4.9375ZM4.9375 7.12501C6.14562 7.12501 7.125 6.14563 7.125 4.93751C7.125 3.72938 6.14562 2.75001 4.9375 2.75001C3.72938 2.75001 2.75 3.72938 2.75 4.93751C2.75 6.14563 3.72938 7.12501 4.9375 7.12501Z" fill="white" style="fill:white;fill-opacity:1;"/>
</svg>
